<?xml version="1.0" standalone="no"?>
<!DOCTYPE svg PUBLIC "-//W3C//DTD SVG 20010904//EN"
 "http://www.w3.org/TR/2001/REC-SVG-20010904/DTD/svg10.dtd">
<svg version="1.0" xmlns="http://www.w3.org/2000/svg"
 width="24.000000pt" height="24.000000pt" viewBox="0 0 512.000000 512.000000"
 preserveAspectRatio="xMidYMid meet">

<g transform="translate(0.000000,512.000000) scale(0.100000,-0.100000)"
fill="#fff" stroke="none">
<path d="M1495 4980 c-248 -42 -446 -116 -647 -241 -442 -274 -742 -722 -823
-1229 -25 -152 -29 -316 -11 -393 18 -79 61 -166 109 -221 l33 -39 -43 -40
c-24 -22 -57 -69 -76 -106 -28 -58 -32 -75 -32 -151 0 -65 5 -96 21 -131 l22
-46 -24 -69 c-39 -116 -29 -220 35 -346 l38 -77 -24 -37 c-90 -131 -91 -331
-4 -465 28 -44 29 -46 34 -239 7 -225 22 -314 76 -445 114 -277 347 -479 646
-561 68 -18 127 -19 1735 -19 1608 0 1667 1 1735 19 299 82 532 284 646 561
54 131 69 220 76 445 5 185 6 197 30 231 88 132 93 326 9 459 l-33 52 39 76
c63 126 73 231 34 346 l-24 69 22 46 c16 35 21 66 21 131 0 76 -4 93 -32 151
-19 37 -52 84 -76 106 l-43 40 33 39 c48 55 91 142 109 221 18 77 14 241 -11
393 -81 507 -381 955 -823 1229 -154 96 -303 160 -479 205 -217 56 -212 56
-1245 55 -853 -1 -963 -3 -1053 -19z m2078 -205 c524 -86 942 -394 1180 -870
44 -88 101 -256 121 -357 25 -122 38 -310 27 -373 -19 -101 -76 -177 -171
-226 -44 -23 -53 -24 -360 -29 -230 -4 -321 -8 -337 -18 -48 -27 -68 -107 -37
-151 34 -48 57 -51 444 -51 300 0 366 -3 390 -15 97 -50 97 -200 0 -250 -25
-13 -308 -15 -2270 -15 -2464 0 -2274 -5 -2320 61 -44 61 -22 164 43 202 17 9
358 13 1567 17 1673 5 1572 2 1601 58 23 41 14 91 -20 126 l-31 31 -1483 5
-1482 5 -45 24 c-95 49 -152 125 -171 226 -11 63 2 251 27 373 20 101 77 269
121 357 236 473 653 782 1172 870 118 20 1913 20 2034 0z m-1013 -2570 c1709
0 2283 3 2307 12 29 11 32 10 37 -12 16 -61 -41 -190 -103 -234 -38 -28 -114
-45 -166 -38 -24 4 -88 29 -142 57 -129 66 -212 80 -327 57 -43 -9 -95 -25
-115 -35 -20 -10 -61 -32 -91 -48 -45 -24 -65 -29 -125 -29 -64 1 -78 5 -170
53 -181 94 -302 93 -489 -2 -94 -47 -106 -51 -171 -51 -64 1 -78 5 -170 52
-110 57 -171 73 -275 73 -104 0 -165 -16 -275 -73 -92 -47 -106 -51 -170 -52
-65 0 -77 4 -171 51 -187 95 -308 96 -489 2 -92 -48 -106 -52 -170 -53 -72 0
-73 0 -200 68 -28 15 -86 35 -130 44 -116 23 -199 9 -328 -57 -54 -28 -118
-53 -142 -57 -52 -7 -128 10 -166 38 -62 44 -119 173 -103 234 5 22 8 23 37
12 24 -9 598 -12 2307 -12z m87 -365 c23 -5 66 -24 95 -41 86 -51 147 -71 235
-76 104 -7 152 5 280 69 90 45 109 51 165 51 57 0 74 -6 163 -51 113 -58 162
-71 255 -72 86 0 126 11 247 72 91 45 109 51 166 51 55 0 75 -6 137 -39 67
-35 71 -39 54 -52 -55 -40 -1072 -771 -1090 -782 -19 -12 -62 18 -552 376
-292 214 -531 392 -532 396 0 4 10 10 23 14 12 3 48 22 81 41 88 51 177 65
273 43z m-922 -529 c-8 -26 18 -85 46 -105 32 -22 91 -20 121 4 30 23 52 72
45 100 -5 19 0 20 66 20 l72 0 1 -41 c0 -34 6 -47 32 -70 l32 -29 259 0 259 0
268 -197 c379 -277 373 -273 410 -273 37 0 26 -7 409 269 l280 201 356 0 c196
0 371 3 389 7 l33 6 -5 -144 c-4 -110 -11 -159 -27 -209 -80 -242 -253 -414
-496 -492 l-70 -23 -1645 0 -1645 0 -70 23 c-243 78 -416 250 -496 492 -16 49
-23 99 -26 205 l-5 140 600 -3 601 -3 32 29 c27 24 33 37 33 71 l1 41 73 0
c68 0 73 -1 67 -19z"/>
<path d="M1561 4266 c-77 -43 -62 -167 23 -196 91 -30 169 76 119 160 -28 48
-92 64 -142 36z"/>
<path d="M2791 4254 c-90 -75 -4 -225 103 -180 45 19 66 52 66 102 0 90 -100
136 -169 78z"/>
<path d="M2174 4072 c-83 -67 -42 -191 63 -192 33 0 48 6 72 31 67 67 22 179
-72 179 -25 0 -51 -8 -63 -18z"/>
<path d="M3408 4062 c-27 -25 -31 -36 -31 -77 0 -41 4 -52 31 -77 60 -52 151
-28 170 45 29 106 -88 181 -170 109z"/>
<path d="M655 3686 c-40 -17 -65 -56 -65 -102 0 -51 53 -104 105 -104 52 0
105 53 105 104 0 47 -25 85 -67 102 -39 17 -40 17 -78 0z"/>
<path d="M1893 3684 c-46 -23 -69 -76 -54 -125 24 -80 113 -106 169 -49 34 33
42 62 30 106 -16 64 -87 97 -145 68z"/>
<path d="M3155 3693 c-49 -12 -87 -78 -77 -131 3 -13 18 -36 34 -52 56 -57
145 -31 169 49 15 50 -8 103 -56 125 -34 17 -37 17 -70 9z"/>
<path d="M4385 3686 c-40 -17 -65 -56 -65 -102 0 -51 53 -104 105 -104 52 0
105 53 105 104 0 47 -25 85 -67 102 -39 17 -40 17 -78 0z"/>
<path d="M1268 3495 c-31 -17 -58 -63 -58 -97 0 -34 36 -87 67 -99 68 -26 143
27 143 102 0 77 -87 131 -152 94z"/>
<path d="M2515 3496 c-98 -43 -62 -206 45 -206 112 0 143 173 38 209 -39 14
-46 13 -83 -3z"/>
<path d="M3764 3500 c-35 -14 -64 -59 -64 -101 0 -73 75 -126 143 -100 31 12
67 65 67 99 0 74 -79 129 -146 102z"/>
<path d="M3674 2906 c-69 -30 -86 -111 -36 -168 25 -27 36 -31 76 -31 64 0
106 38 106 98 0 49 -22 82 -66 101 -40 17 -41 17 -80 0z"/>
</g>
</svg>
